# xmcd
#
# Track frame offsets:
#   150
#   13620
#   24042
#   38980
#   51202
#   68740
#   85899
#   104826
#   117601
#   132677
#   148982
#   161606
#   171774
#   186813
#   199706
#
# Disc length: 2911 seconds
#
# Revision: 0
# Processed by: cddbd v1.5.1PL0 Copyright (c) Steve Scherf et al.
# Submitted via: Media_Universe 3.0
#
DISCID=da0b5d0f
DTITLE=Alan Jackson - Let It Be Christmas
DYEAR=1900
DGENRE=Country
TTITLE0=Have Yourself A Merry Little Christmas
TTITLE1=Winter Wonderland
TTITLE2=O Come All Ye Faithful
TTITLE3=Santa Claus Is Coming To Town
TTITLE4=The Christmas Song
TTITLE5=Silent Night
TTITLE6=Let It Be Christmas
TTITLE7=Jingle Bells
TTITLE8=White Christmas
TTITLE9=Silver Bells
TTITLE10=Away In A Manger
TTITLE11=Have Yourself A Holly Jolly Christmas
TTITLE12=Please Daddy Dont Get Drunk This Christmas
TTITLE13=The Angel Cried
TTITLE14=Santa's Gonna Come in A Pickup Truck
EXTD=
EXTT0=
EXTT1=
EXTT2=
EXTT3=
EXTT4=
EXTT5=
EXTT6=
EXTT7=
EXTT8=
EXTT9=
EXTT10=
EXTT11=
EXTT12=
EXTT13=
EXTT14=
PLAYORDER=
